<?xml version="1.0" encoding="utf-8"?>
<!-- Generator: Adobe Illustrator 25.2.0, SVG Export Plug-In . SVG Version: 6.00 Build 0)  -->
<svg version="1.1" id="Calque_1" xmlns="http://www.w3.org/2000/svg" xmlns:xlink="http://www.w3.org/1999/xlink" x="0px" y="0px"
	 viewBox="0 0 399.98 363.76" style="enable-background:new 0 0 399.98 363.76;" xml:space="preserve">
<style type="text/css">
	.Voûte _x002D__x0020_Vert{fill:url(#SVGID_1_);stroke:#FFFFFF;stroke-width:0.25;stroke-miterlimit:1;}
	.st0{fill:#FFFFFF;}
	.st1{fill-rule:evenodd;clip-rule:evenodd;fill:#FFFFFF;}
</style>
<linearGradient id="SVGID_1_" gradientUnits="userSpaceOnUse" x1="-350.2783" y1="523.6582" x2="-349.5712" y2="522.951">
	<stop  offset="0" style="stop-color:#259E2E"/>
	<stop  offset="0.9831" style="stop-color:#1C381D"/>
</linearGradient>
<g>
	<g>
		<g>
			<path class="st0" d="M320.52,211.48c-18.78,10.78-39.4,16.3-60.53,17.95c5.1-2.95,12.55-8.23,18.04-15.13
				c5.48-1.93,20.06-6.61,30.51-18.97l-1.27-1.07c-8.88,10.51-20.95,15.33-27.47,17.65c2.17-3.14,3.88-6.57,4.77-10.23l-1.61-0.38
				c-0.96,4.15-3.16,8.06-5.92,11.59c0,0,0,0-0.01,0l0,0c-6.66,8.48-16.68,14.74-21.02,16.8c-11.63,0.64-23.39,0.15-35.05-1.26
				c0.97-3.95,3.81-11.16,12.84-18.34c11.79-9.38,34.24-18.66,76.97-19.94l-0.05-1.66c-12.96,0.39-24.08,1.51-33.64,3.16
				c0.01-1.84-0.13-3.32-0.25-4.11c-0.18-1.26-1.18-5.76,2.87-12.52c1.57-2.61,3.13-4.31,3.13-4.31l-1.22-1.12l0,0
				c-0.03,0.06-4.91,5.31-6.3,11.81c-3.24-9.35-11.12-18.47-25.02-21.4l-0.35,1.62c21.49,4.57,25.82,22.97,25.45,30.32
				c-21.11,3.84-34.33,10.26-42.63,16.84c-1.08,0.85-2.04,1.71-2.96,2.57c1.96-4.38,3.99-10.46,3.99-17.86
				c0-6.29-1.47-13.54-5.66-21.48l-1.47,0.77c4.07,7.72,5.47,14.67,5.47,20.71c0,10.29-4.08,17.92-6.2,21.94l0.01,0.01
				c-4.25,5.16-5.94,9.86-6.64,12.8c-7.89-1.01-15.73-2.43-23.46-4.2c-0.94-2.33-1.98-4.64-3.14-6.89
				c1.54-20.28,5.33-49.52,32.68-67.92l-0.93-1.38c-26.88,18.09-31.51,46.39-33.21,66.6c-2.19-3.88-4.74-7.59-7.73-10.99
				c-1.8-2.04-3.76-4.08-5.83-6.13c-0.31-1.8-0.55-3.99-0.55-6.52c0-5.71,1.19-13.08,5.44-21.25c5.85-11.31,14.96-27.77,15-38.86
				c0-2.07-0.33-3.99-1.1-5.64l-1.5,0.7c0.64,1.37,0.94,3.03,0.94,4.94c0.01,3.72-1.17,8.28-2.94,13.1c0-0.2,0.01-0.39,0.01-0.59
				c0.03-9.09-4.88-13.6-9.94-17.05c-5.11-3.51-10.24-6.34-11.88-11.74c-4.4-14.47-11.54-18.7-15.6-23.31l-1.21,1.14
				c4.22,4.5,11.41,9.6,15.27,22.81c1.76,6,7.12,8.83,12.48,12.47c4.96,3.46,9.2,7.26,9.23,15.69c0,1.68-0.18,3.57-0.69,6.38
				c-2.96,6.76-6.62,13.63-9.53,19.2c-1.2,2.3-2.16,4.54-2.92,6.71c-0.75-8.58-4.59-21.55-12.12-28.92l-1.16,1.19
				c7.91,7.63,12.16,22.91,11.8,32.73c-0.9,3.79-1.22,7.27-1.22,10.3c0,1.7,0.1,3.25,0.26,4.65
				c-14.11-13.51-33.03-27.44-48.65-44.23c-1.45-3.98-4.08-11.84-4.08-21.35c0.02-12.38,4.43-27.38,21.98-40.01l-0.97-1.35
				c-17.99,12.9-22.69,28.58-22.68,41.35c0,7.38,1.55,13.82,2.94,18.26c-9.82-11.09-18.05-23.45-22.48-37.73l-2.38,0.74
				c8.84,28.26,31.74,48.93,52.71,66.86c-6.77-1.98-21.31-6.57-30.2-5.4c-4.39,0.57-10.56,1.65-16.35,1.65
				c-4.95,0.01-9.57-0.76-12.44-2.92l-0.99,1.33c3.41,2.52,8.33,3.24,13.43,3.25c5.96,0,11.69-1.01,16.59-1.67
				c9.2-1.23,27.02,4.75,32.94,6.31c10.08,8.59,19.53,16.59,26.5,24.55c4.77,5.42,8.43,11.68,11.23,18.25
				c-51.2-12.31-96.9-39.32-116.93-60.13c3.05,12.78,55.36,50,118.71,64.68c8.13,22.38,7.34,46.7,7.69,52.15l2.48-0.18
				c-0.39-5.1,0.49-28.79-7.31-51.34c7.03,1.54,14.19,2.8,21.42,3.71c-2.31,4.47-9.55,20.06-9.53,39.8
				c0.41-6.14,5.57-29.93,18.36-38.85c31.35,2.68,63.72-1.51,93.03-17.64L320.52,211.48z"/>
			<path class="st1" d="M107.92,116.52c0.37,5.15-3.51,9.62-8.67,9.99c-5.15,0.37-9.63-3.51-9.99-8.67
				c-0.37-5.15,3.51-9.62,8.67-9.99C103.08,107.48,107.55,111.36,107.92,116.52z"/>
			<path class="st1" d="M108.93,163.97c0.44,6.18-4.22,11.55-10.4,11.99c-6.18,0.44-11.55-4.22-11.99-10.4
				c-0.44-6.18,4.22-11.55,10.4-11.99C103.12,153.13,108.49,157.79,108.93,163.97z"/>
			<path class="st1" d="M229.39,143.55c0.44,6.18-4.21,11.55-10.4,11.99c-6.18,0.44-11.55-4.21-11.99-10.4
				c-0.44-6.18,4.22-11.55,10.4-11.99C223.59,132.72,228.96,137.37,229.39,143.55z"/>
			<path class="st1" d="M153.56,97.1c0.44,6.18-4.22,11.55-10.4,11.99c-6.18,0.44-11.55-4.21-11.99-10.4
				c-0.44-6.18,4.22-11.55,10.4-11.99C147.75,86.26,153.12,90.92,153.56,97.1z"/>
			<path class="st1" d="M215.88,115.55c0.58,8.09-5.52,15.12-13.61,15.69c-8.09,0.58-15.12-5.52-15.69-13.61
				c-0.58-8.09,5.52-15.12,13.61-15.7C208.27,101.36,215.3,107.45,215.88,115.55z"/>
			<path class="st1" d="M181.22,143.73c0.83,11.59-7.91,21.66-19.5,22.48c-11.59,0.83-21.66-7.9-22.48-19.5
				c-0.82-11.59,7.91-21.66,19.5-22.48C170.33,123.41,180.39,132.14,181.22,143.73z"/>
			<path class="st1" d="M271.32,208.95c0.37,5.16-3.51,9.63-8.67,9.99c-5.15,0.36-9.63-3.51-9.99-8.67
				c-0.37-5.16,3.52-9.63,8.67-9.99C266.48,199.92,270.95,203.8,271.32,208.95z"/>
			<path class="st1" d="M290.51,201.02c0.27,3.72-2.54,6.95-6.26,7.21c-3.72,0.27-6.96-2.54-7.22-6.26
				c-0.27-3.72,2.54-6.95,6.26-7.22C287.02,194.49,290.25,197.29,290.51,201.02z"/>
			<path class="st1" d="M154.78,190.23c0.27,3.72-2.54,6.95-6.26,7.22c-3.72,0.27-6.96-2.54-7.22-6.26
				c-0.27-3.72,2.54-6.96,6.26-7.22C151.28,183.7,154.51,186.5,154.78,190.23z"/>
			<path class="st1" d="M295.1,160.35c0.53,7.42-5.06,13.86-12.48,14.39c-7.42,0.53-13.86-5.06-14.39-12.48
				c-0.53-7.42,5.06-13.86,12.48-14.39C288.13,147.34,294.57,152.93,295.1,160.35z"/>
			<path class="st1" d="M232.85,178.15c0.37,5.15-3.52,9.63-8.67,9.99c-5.15,0.37-9.62-3.52-9.99-8.67
				c-0.37-5.15,3.51-9.63,8.66-9.99C228.01,169.11,232.49,173,232.85,178.15z"/>
			<path class="st1" d="M261.07,166.36c0.37,5.15-3.52,9.63-8.67,9.99c-5.15,0.37-9.63-3.52-9.99-8.67
				c-0.37-5.15,3.52-9.62,8.66-9.99C256.23,157.32,260.71,161.2,261.07,166.36z"/>
			<path class="st1" d="M316.06,187.24c0.37,5.15-3.51,9.62-8.67,9.99c-5.15,0.36-9.62-3.52-9.99-8.67
				c-0.37-5.15,3.51-9.62,8.67-9.99C311.22,178.2,315.69,182.08,316.06,187.24z"/>
		</g>
	</g>
</g>
</svg>
